<mxfile host="app.diagrams.net" modified="2022-09-07T03:30:11.119Z" agent="5.0 (Macintosh; Intel Mac OS X 10_15_7) AppleWebKit/537.36 (KHTML, like Gecko) Chrome/105.0.0.0 Safari/537.36" etag="djHWhcJMe4oPT8dqp7xN" version="20.2.8" type="github">
  <diagram name="Page-1" id="90a13364-a465-7bf4-72fc-28e22215d7a0">
    <mxGraphModel dx="2066" dy="1129" grid="1" gridSize="10" guides="1" tooltips="1" connect="1" arrows="1" fold="1" page="1" pageScale="1.5" pageWidth="1169" pageHeight="826" background="none" math="0" shadow="0">
      <root>
        <mxCell id="0" style=";html=1;" />
        <mxCell id="1" style=";html=1;" parent="0" />
        <mxCell id="fSm1GcxjfFAWFzGtAJEy-17" value="" style="group" vertex="1" connectable="0" parent="1">
          <mxGeometry width="1090" height="570" as="geometry" />
        </mxCell>
        <mxCell id="fSm1GcxjfFAWFzGtAJEy-5" value="" style="rounded=0;whiteSpace=wrap;html=1;" vertex="1" parent="fSm1GcxjfFAWFzGtAJEy-17">
          <mxGeometry x="740" y="195" width="350" height="370" as="geometry" />
        </mxCell>
        <mxCell id="fSm1GcxjfFAWFzGtAJEy-4" value="" style="rounded=0;whiteSpace=wrap;html=1;" vertex="1" parent="fSm1GcxjfFAWFzGtAJEy-17">
          <mxGeometry width="350" height="130" as="geometry" />
        </mxCell>
        <mxCell id="fSm1GcxjfFAWFzGtAJEy-3" value="" style="rounded=0;whiteSpace=wrap;html=1;" vertex="1" parent="fSm1GcxjfFAWFzGtAJEy-17">
          <mxGeometry y="200" width="500" height="370" as="geometry" />
        </mxCell>
        <mxCell id="3a17f1ce550125da-5" value="Externaldata Service" style="whiteSpace=wrap;html=1;shadow=1;fontSize=18;fillColor=#f5f5f5;strokeColor=#666666;" parent="fSm1GcxjfFAWFzGtAJEy-17" vertex="1">
          <mxGeometry x="40" y="40" width="190" height="60" as="geometry" />
        </mxCell>
        <mxCell id="3a17f1ce550125da-7" value="Kafka" style="whiteSpace=wrap;html=1;shadow=1;fontSize=18;fillColor=#f5f5f5;strokeColor=#666666;" parent="fSm1GcxjfFAWFzGtAJEy-17" vertex="1">
          <mxGeometry x="530" y="240" width="150" height="80" as="geometry" />
        </mxCell>
        <mxCell id="fSm1GcxjfFAWFzGtAJEy-12" style="edgeStyle=orthogonalEdgeStyle;rounded=0;orthogonalLoop=1;jettySize=auto;html=1;exitX=0.5;exitY=0;exitDx=0;exitDy=0;" edge="1" parent="fSm1GcxjfFAWFzGtAJEy-17" source="3a17f1ce550125da-8" target="3a17f1ce550125da-5">
          <mxGeometry relative="1" as="geometry" />
        </mxCell>
        <mxCell id="fSm1GcxjfFAWFzGtAJEy-13" style="edgeStyle=orthogonalEdgeStyle;rounded=0;orthogonalLoop=1;jettySize=auto;html=1;exitX=0.5;exitY=1;exitDx=0;exitDy=0;" edge="1" parent="fSm1GcxjfFAWFzGtAJEy-17" source="3a17f1ce550125da-8">
          <mxGeometry relative="1" as="geometry">
            <mxPoint x="135" y="410" as="targetPoint" />
          </mxGeometry>
        </mxCell>
        <mxCell id="3a17f1ce550125da-8" value="DNB Changes Detection Service" style="whiteSpace=wrap;html=1;shadow=1;fontSize=18;fillColor=#f5f5f5;strokeColor=#666666;" parent="fSm1GcxjfFAWFzGtAJEy-17" vertex="1">
          <mxGeometry x="20" y="240" width="230" height="80" as="geometry" />
        </mxCell>
        <mxCell id="fSm1GcxjfFAWFzGtAJEy-9" style="edgeStyle=orthogonalEdgeStyle;rounded=0;orthogonalLoop=1;jettySize=auto;html=1;exitX=1;exitY=0.5;exitDx=0;exitDy=0;entryX=0;entryY=0.5;entryDx=0;entryDy=0;" edge="1" parent="fSm1GcxjfFAWFzGtAJEy-17" source="3a17f1ce550125da-9" target="3a17f1ce550125da-7">
          <mxGeometry relative="1" as="geometry" />
        </mxCell>
        <mxCell id="3a17f1ce550125da-9" value="Notification Producer" style="whiteSpace=wrap;html=1;shadow=1;fontSize=18;fillColor=#f5f5f5;strokeColor=#666666;" parent="fSm1GcxjfFAWFzGtAJEy-17" vertex="1">
          <mxGeometry x="300" y="240" width="150" height="80" as="geometry" />
        </mxCell>
        <mxCell id="fSm1GcxjfFAWFzGtAJEy-8" style="edgeStyle=orthogonalEdgeStyle;rounded=0;orthogonalLoop=1;jettySize=auto;html=1;exitX=1;exitY=0.5;exitDx=0;exitDy=0;entryX=0;entryY=0.5;entryDx=0;entryDy=0;" edge="1" parent="fSm1GcxjfFAWFzGtAJEy-17" source="3a17f1ce550125da-8" target="3a17f1ce550125da-9">
          <mxGeometry relative="1" as="geometry" />
        </mxCell>
        <mxCell id="3a17f1ce550125da-11" value="In-app notification Service" style="whiteSpace=wrap;html=1;shadow=1;fontSize=18;fillColor=#f5f5f5;strokeColor=#666666;" parent="fSm1GcxjfFAWFzGtAJEy-17" vertex="1">
          <mxGeometry x="780" y="240" width="160" height="80" as="geometry" />
        </mxCell>
        <mxCell id="fSm1GcxjfFAWFzGtAJEy-10" style="edgeStyle=orthogonalEdgeStyle;rounded=0;orthogonalLoop=1;jettySize=auto;html=1;exitX=1;exitY=0.5;exitDx=0;exitDy=0;" edge="1" parent="fSm1GcxjfFAWFzGtAJEy-17" source="3a17f1ce550125da-7" target="3a17f1ce550125da-11">
          <mxGeometry relative="1" as="geometry" />
        </mxCell>
        <mxCell id="fSm1GcxjfFAWFzGtAJEy-11" style="edgeStyle=orthogonalEdgeStyle;rounded=0;orthogonalLoop=1;jettySize=auto;html=1;" edge="1" parent="fSm1GcxjfFAWFzGtAJEy-17" source="fSm1GcxjfFAWFzGtAJEy-2" target="3a17f1ce550125da-11">
          <mxGeometry relative="1" as="geometry" />
        </mxCell>
        <mxCell id="fSm1GcxjfFAWFzGtAJEy-2" value="Supplier" style="shape=umlActor;verticalLabelPosition=bottom;verticalAlign=top;html=1;outlineConnect=0;" vertex="1" parent="fSm1GcxjfFAWFzGtAJEy-17">
          <mxGeometry x="845" y="20" width="30" height="60" as="geometry" />
        </mxCell>
        <mxCell id="fSm1GcxjfFAWFzGtAJEy-7" value="AN Storage" style="shape=cylinder3;whiteSpace=wrap;html=1;boundedLbl=1;backgroundOutline=1;size=15;" vertex="1" parent="fSm1GcxjfFAWFzGtAJEy-17">
          <mxGeometry x="92.5" y="410" width="85" height="110" as="geometry" />
        </mxCell>
        <mxCell id="fSm1GcxjfFAWFzGtAJEy-14" value="AN" style="text;html=1;align=center;verticalAlign=middle;resizable=0;points=[];autosize=1;strokeColor=none;fillColor=none;" vertex="1" parent="fSm1GcxjfFAWFzGtAJEy-17">
          <mxGeometry y="200" width="40" height="30" as="geometry" />
        </mxCell>
        <mxCell id="fSm1GcxjfFAWFzGtAJEy-15" value="TPP" style="text;html=1;align=center;verticalAlign=middle;resizable=0;points=[];autosize=1;strokeColor=none;fillColor=none;" vertex="1" parent="fSm1GcxjfFAWFzGtAJEy-17">
          <mxGeometry x="740" y="195" width="50" height="30" as="geometry" />
        </mxCell>
        <mxCell id="fSm1GcxjfFAWFzGtAJEy-16" value="TPS" style="text;html=1;align=center;verticalAlign=middle;resizable=0;points=[];autosize=1;strokeColor=none;fillColor=none;" vertex="1" parent="fSm1GcxjfFAWFzGtAJEy-17">
          <mxGeometry width="50" height="30" as="geometry" />
        </mxCell>
      </root>
    </mxGraphModel>
  </diagram>
</mxfile>
